/vscmnt/brussel_pixiu_data/_data_brussel/112/vsc11236/PredSimResults/SUBJ06_Dhondt2024_3seg/weighted/worker_01.mot
version=1
nRows=4
nColumns=124
inDegrees=yes
endheader
                time	         pelvis_tilt	         pelvis_list	     pelvis_rotation	           pelvis_tx	           pelvis_ty	           pelvis_tz	       hip_flexion_r	     hip_adduction_r	      hip_rotation_r	        knee_angle_r	       ankle_angle_r	    subtalar_angle_r	         mtp_angle_r	       hip_flexion_l	     hip_adduction_l	      hip_rotation_l	        knee_angle_l	       ankle_angle_l	    subtalar_angle_l	         mtp_angle_l	    lumbar_extension	      lumbar_bending	     lumbar_rotation	          arm_flex_r	           arm_add_r	           arm_rot_r	        elbow_flex_r	          arm_flex_l	           arm_add_l	           arm_rot_l	        elbow_flex_l	glut_med1_r/activation	glut_med2_r/activation	glut_med3_r/activation	glut_min1_r/activation	glut_min2_r/activation	glut_min3_r/activation	semimem_r/activation	semiten_r/activation	bifemlh_r/activation	bifemsh_r/activation	    sar_r/activation	add_long_r/activation	add_brev_r/activation	add_mag1_r/activation	add_mag2_r/activation	add_mag3_r/activation	    tfl_r/activation	   pect_r/activation	   grac_r/activation	glut_max1_r/activation	glut_max2_r/activation	glut_max3_r/activation	iliacus_r/activation	  psoas_r/activation	quad_fem_r/activation	    gem_r/activation	   peri_r/activation	rect_fem_r/activation	vas_med_r/activation	vas_int_r/activation	vas_lat_r/activation	med_gas_r/activation	lat_gas_r/activation	 soleus_r/activation	tib_post_r/activation	flex_dig_r/activation	flex_hal_r/activation	tib_ant_r/activation	per_brev_r/activation	per_long_r/activation	per_tert_r/activation	ext_dig_r/activation	ext_hal_r/activation	glut_med1_l/activation	glut_med2_l/activation	glut_med3_l/activation	glut_min1_l/activation	glut_min2_l/activation	glut_min3_l/activation	semimem_l/activation	semiten_l/activation	bifemlh_l/activation	bifemsh_l/activation	    sar_l/activation	add_long_l/activation	add_brev_l/activation	add_mag1_l/activation	add_mag2_l/activation	add_mag3_l/activation	    tfl_l/activation	   pect_l/activation	   grac_l/activation	glut_max1_l/activation	glut_max2_l/activation	glut_max3_l/activation	iliacus_l/activation	  psoas_l/activation	quad_fem_l/activation	    gem_l/activation	   peri_l/activation	rect_fem_l/activation	vas_med_l/activation	vas_int_l/activation	vas_lat_l/activation	med_gas_l/activation	lat_gas_l/activation	 soleus_l/activation	tib_post_l/activation	flex_dig_l/activation	flex_hal_l/activation	tib_ant_l/activation	per_brev_l/activation	per_long_l/activation	per_tert_l/activation	ext_dig_l/activation	ext_hal_l/activation	 ercspn_r/activation	 ercspn_l/activation	 intobl_r/activation	 intobl_l/activation	 extobl_r/activation	 extobl_l/activation	
          1.09399582	         -2.92963243	         -1.80147498	          1.81110868	          1.27997511	          0.93320542	         -0.00150371	         24.64412430	          4.06948980	          3.49099930	         -5.85824933	          6.74278066	         -4.04143436	          0.17757395	        -14.90947948	          0.70836513	          9.15342970	         -6.97220192	          6.06139016	          7.78906497	         16.81024617	         -4.61648708	          1.23960553	         -1.42881580	         -3.28021073	        -13.45045310	         17.29442201	         26.72664570	          0.79078763	        -13.51496350	         19.21928139	         45.72664400	          0.01000027	          0.01000061	          0.01000224	          0.01000042	          0.01000047	          0.01000079	          0.25199949	          0.04324949	          0.04070499	          0.01000033	          0.01044353	          0.11269691	          0.16338958	          0.18080205	          0.16283228	          0.08921975	          0.01000037	          0.02061344	          0.06713215	          0.01182420	          0.02301224	          0.06410961	          0.01182277	          0.01083510	          0.03008003	          0.01000064	          0.01000018	          0.01254752	          0.07985107	          0.08176075	          0.06796467	          0.01000003	          0.01000008	          0.01000001	          0.01182335	          0.01182341	          0.01182339	          0.23529820	          0.18872228	          0.13513490	          0.11640968	          0.31648610	          0.03825308	          0.25703221	          0.13304276	          0.07470466	          0.34614602	          0.29672588	          0.18977600	          0.01000241	          0.01000042	          0.01000039	          0.05138866	          0.10404673	          0.01000008	          0.01000012	          0.01000021	          0.01000078	          0.01000052	          0.45624221	          0.01000047	          0.01000063	          0.01954021	          0.01652378	          0.01000168	          0.27941425	          0.45423572	          0.01528134	          0.01652868	          0.07629417	          0.35042054	          0.01000432	          0.01000375	          0.01000329	          0.38773381	          0.46736657	          0.41131222	          0.31665150	          0.39035398	          0.45722625	          0.01397906	          0.01397368	          0.17694212	          0.01483825	          0.01605066	          0.01421686	          0.02374852	          0.01000001	          0.03820851	          0.01000001	          0.06382412	          0.01000004	
          1.10493578	         -2.92530363	         -2.12036269	          1.94024673	          1.29516987	          0.93270204	         -0.00133684	         23.67185458	          4.63923864	          3.57470207	         -4.77961654	          5.68699762	         -4.24734931	          0.19360226	        -14.97006114	          0.36589672	          8.93719605	         -8.46995358	          5.27600592	          8.21893665	         18.00476375	         -4.45440360	          1.72131018	         -1.48252881	         -3.56371390	        -13.45008468	         17.07775108	         25.86064196	          0.25179439	        -13.54292175	         19.19270460	         46.96608995	          0.01182331	          0.01000637	          0.01000006	          0.01182332	          0.01182326	          0.01000104	          0.22448006	          0.03657989	          0.03442778	          0.01000004	          0.01000013	          0.09531781	          0.24712928	          0.15568089	          0.18317905	          0.07546099	          0.01000048	          0.02887025	          0.05677979	          0.01000089	          0.01946348	          0.07427917	          0.01000010	          0.01000007	          0.10785099	          0.16116333	          0.05549859	          0.01652796	          0.10529810	          0.10236434	          0.08648112	          0.01000008	          0.01000011	          0.01212589	          0.01000004	          0.01000018	          0.01000019	          0.26767379	          0.20015597	          0.12207119	          0.16697439	          0.37179645	          0.03235395	          0.25848089	          0.11252567	          0.06318413	          0.29276553	          0.25096656	          0.16050985	          0.01000075	          0.01000013	          0.01000008	          0.04346380	          0.08800132	          0.02610102	          0.01000031	          0.01000034	          0.01000085	          0.01000030	          0.38588327	          0.02645888	          0.01000356	          0.01652706	          0.01397597	          0.01000056	          0.23632476	          0.38418620	          0.01292489	          0.01397985	          0.06452853	          0.31214465	          0.01000027	          0.01000029	          0.01000024	          0.34939075	          0.42684237	          0.38517135	          0.30133424	          0.35478700	          0.43084947	          0.01182330	          0.01181886	          0.17040339	          0.01254999	          0.01357542	          0.01202443	          0.02008616	          0.01367650	          0.03231621	          0.01131869	          0.05398153	          0.01000013	
          1.11587574	         -2.91680072	         -2.44776646	          2.05619477	          1.31063517	          0.93218119	         -0.00117932	         22.68618299	          5.16849495	          3.67624944	         -4.24843161	          4.29729209	         -4.42257316	          0.21403335	        -14.95238883	          0.02071135	          8.69879745	        -10.11074434	          4.32959443	          8.65757811	         19.23517921	         -4.27421637	          2.21773378	         -1.52720358	         -3.85789496	        -13.46154330	         16.92481872	         24.98936249	         -0.34242941	        -13.57067880	         19.15498518	         48.19297916	          0.01000000	          0.01000003	          0.03793976	          0.01000004	          0.01000004	          0.01000008	          0.18986204	          0.04537561	          0.02911859	          0.01954065	          0.01397517	          0.08061856	          0.23675458	          0.23748281	          0.15828143	          0.06382389	          0.01000006	          0.02441894	          0.16974330	          0.01000043	          0.01646215	          0.06282431	          0.01397887	          0.01397916	          0.23741327	          0.13630969	          0.04693994	          0.01397913	          0.08905968	          0.08657836	          0.07314454	          0.01397944	          0.01620406	          0.01397907	          0.01652791	          0.01398153	          0.01489918	          0.23427967	          0.21587428	          0.14032884	          0.14122463	          0.31446063	          0.06848002	          0.21861948	          0.09517261	          0.05344024	          0.24761697	          0.21226396	          0.13575695	          0.01086265	          0.01002141	          0.01182312	          0.03676107	          0.07443030	          0.02207725	          0.01182357	          0.01182353	          0.01182367	          0.01182364	          0.32637462	          0.02237952	          0.01000325	          0.01397858	          0.01182185	          0.01182307	          0.19988012	          0.32493921	          0.01093192	          0.01182409	          0.05457732	          0.29840147	          0.03501324	          0.02856956	          0.01403439	          0.29550972	          0.36101750	          0.34779336	          0.27498229	          0.30007401	          0.36440663	          0.01000001	          0.01000011	          0.17667467	          0.01061462	          0.01148191	          0.01017012	          0.01698859	          0.02326845	          0.02733259	          0.01652791	          0.04565681	          0.01397951	
          1.12681570	         -2.90545421	         -2.79813580	          2.15724047	          1.32628073	          0.93167880	         -0.00106685	         21.69140562	          5.61193192	          3.83538664	         -3.97603234	          2.62984658	         -4.57510851	          0.21272448	        -14.84590345	         -0.33866666	          8.42299675	        -11.89228595	          3.19727695	          9.08850991	         20.47468378	         -4.08238218	          2.74749865	         -1.56046148	         -4.14610082	        -13.49422706	         16.85924384	         24.10742038	         -0.97600871	        -13.58680001	         19.10683384	         49.39255512	          0.26012019	          0.25131465	          0.27455453	          0.16762114	          0.05163768	          0.21577669	          0.16058262	          0.04115766	          0.03442322	          0.01652730	          0.01182191	          0.06818605	          0.20024366	          0.20085963	          0.13387228	          0.05398145	          0.01000546	          0.02065340	          0.14356653	          0.01000032	          0.01392354	          0.05313598	          0.01182336	          0.01182343	          0.20080079	          0.11528891	          0.11115971	          0.01182338	          0.07532553	          0.07322688	          0.06186474	          0.01182362	          0.01370518	          0.01182331	          0.01397908	          0.01182544	          0.01260157	          0.40085494	          0.22851300	          0.12073102	          0.50340546	          0.45439345	          0.21400125	          0.28121811	          0.08049564	          0.04519899	          0.36959834	          0.17952989	          0.11482131	          0.01000103	          0.01000010	          0.01000007	          0.03109201	          0.06295215	          0.03902787	          0.01000035	          0.01000034	          0.01000076	          0.01000045	          0.27604312	          0.09626839	          0.01000044	          0.01182311	          0.01000040	          0.01000029	          0.16905583	          0.27482908	          0.01000004	          0.01000077	          0.04616072	          0.25238372	          0.02961374	          0.02416377	          0.01187012	          0.24993789	          0.30534345	          0.29415864	          0.23257615	          0.25379839	          0.30820998	          0.01000001	          0.01158351	          0.18062350	          0.01000006	          0.01000001	          0.01000008	          0.01848698	          0.03828725	          0.02311754	          0.01397907	          0.03861588	          0.01182368	
